<svg id="Calque_1" data-name="Calque 1" xmlns="http://www.w3.org/2000/svg" viewBox="0 0 225 225"><defs><style>.cls-1{fill:#2f3542;}.cls-2{fill:#fff;}</style></defs><path class="cls-1" d="M1072.92,540c0,36.14-.05,72.28.08,108.42,0,3-.6,3.58-3.58,3.58q-108.92-.16-217.84,0c-3,0-3.58-.6-3.58-3.58q.16-108.92,0-217.84c0-3,.6-3.58,3.58-3.58q108.92.17,217.84,0c3,0,3.59.6,3.58,3.58C1072.87,467.05,1072.92,503.53,1072.92,540Z" transform="translate(-848 -427)"/><path class="cls-2" d="M907.68,628.76c-5.28-4.46-7.49-13-4.94-19.08-1.24-1.72-2.77.73-4.15-.35-.76-.79-.08-1.44.49-2,.9-.85,1-3,3.31-1.48,11.48,7.66,21.89,16.29,27.91,29.17.6,1.27.65,3,2.78,3.59,1-2.09-.29-3.68-1-5.37-5.78-13.06-16.25-21.82-27.85-29.16-5.81-3.68-7.26-8.05-6.05-14.22a48.13,48.13,0,0,1,8.21-19.64c1.34-1.82,2.26-2.55,4.8-1.6,4.94,1.84,7,0,6.62-5.37a8.07,8.07,0,0,1,2.54-6.26c1.71-1.81,3.66-3.93,6.43-2.41,2.47,1.36,2,4,1.56,6.29-2.41,13.26-5,26.5-3.34,40.1a79,79,0,0,0,3.29,14.58c6.17,19,30.73,30.25,49.58,15.4,11.6-9.14,22.42-19.32,31.26-31.32,1.63-2.22,3.17-3.37,6-3.43,4.65-.09,9.28-.78,13.92-1.26,2.88-.3,4.46-1.65,4.44-4.84-.1-20.63-.09-41.26-.18-61.89,0-2.16.77-4.66-2.36-5.86-1.67-.63-.54-2.36-.26-3.55,1-4.23,1.84-8.47,1.47-12.84-.79-9.23-3.94-17.17-12.29-22.19a13.54,13.54,0,0,1-5.81-6.54,19.11,19.11,0,0,0-4.24-5.48A164.54,164.54,0,0,1,994.54,454c-3-4.07-6.5-7.69-12.34-9.14.4,1.22.41,1.86.71,2.05,11,7,17.24,18.8,26.75,27.35,3.13,2.82,5.28,6.46,5.13,11,0,1,.1,2.06-1.41,2.56-1.22-1.8-1.29-3.95-1.59-6a13,13,0,0,0-3-6.74c-.66-.77-1.49-1.52-2.56-1s-.75,1.66-.51,2.62c.88,3.55,1.9,7.07,2.57,10.66a8.67,8.67,0,0,1-2,8.05c-1.87-2.5-.65-5-.84-7.39-.11-1.47.38-3.07,0-4.42-.67-2.26-.32-6.3-3.09-6.05s-.62,3.86-1.08,5.94c-.64,2.87-.38,6-2.91,8.87-.78-3.34,1.43-5.62,1.47-8.23,0-1.79.41-4.28-1.65-4.68s-1.89,2.22-2.52,3.64c-1.26,2.83-1.53,6.34-6.07,8.44,3.78-6.64,6-12.39,4.48-19.22-3.86-17.07-23.62-28.72-40.76-25.51-23.1,4.32-40.71,29.8-43,50.37-.11,1-.24,2-.31,3a3.4,3.4,0,0,1-3.67,3.32c-2.75.05-1.94-2.36-1.84-3.73.93-13,6.17-24.37,13.25-35.06,4.25-6.44,9.07-12.33,15.49-16.75a2,2,0,0,0,1.07-2.6A52.14,52.14,0,0,0,919.44,459a93.76,93.76,0,0,0-14.5,28.31c-3.67,11.11-3,22.37-.73,33.55,1,4.84.27,7.92-4.17,10.84-7.27,4.77-12.8,11.57-18.16,18.42-1.88-.8-1-2.35-1-3.46.61-32.1,1.34-64.21,1.86-96.32.08-4.55,1-5.75,6.15-5.9,23.61-.68,47.22-.86,70.83-.9,24.8-.05,49.58.48,74.36,1.44,3.74.15,5,1.21,5.2,5.18q1.41,31.9,1.2,63.83c-.12,16.8-1.67,33.61-1.13,50.37.71,22-1,43.91-.07,65.87.38,8.61.08,8.75-8.34,9.17-24.94,1.26-49.87,1.53-74.86.94-22.24-.53-44.54-.36-66.79.92-1.66.09-3.33,0-5,0-3,.08-4.51-1-4.51-4.37,0-7.15-.25-14.31-.65-21.46-.21-3.82,2.22-5,5-6.48.52,2-2.63,3-1.12,4.57s3.06-.07,4.58-.66,3.06-1.14,4.8-.31c-.59,2.94-4.79,2.44-5.16,5.57,2.19,1,3.27-1.18,4.9-1.61.9-.23,1.93-1.26,2.58,0,.5.93-.2,2-1.07,2.55-1.09.75-2.28,1.37-3.41,2.06-.8.49-1.39,1.66-.61,2,5.75,2.17,2.93,7.74,4.74,11.43.69,1.41-.24,3.44,2.1,4.66,1.28-2.27,0-4.45-.12-6.52-.11-2.31-.76-4.6-1-6.91-.1-1-.83-2.48.7-3.06,1.1-.42,1.74.71,2.44,1.36,3.76,3.5,7.85,6.68,10.32,11.38.56,1,.9,2.62,2.93,2.8.73-2.92-2.28-4.52-2.5-7l.21.08-.15,0c-1-.54-2.3-.93-1.69-2.56-1.2-1,.69-2.77-1-3.61C908.39,626,906.42,627.81,907.68,628.76Z" transform="translate(-848 -427)"/><path class="cls-2" d="M999.46,536.84c.58-8.23.58-8.22,8.71-9.16,3.48-.4,6.94-.85,10.4-1.31,2.22-.28,3.95.09,4.11,3.3.8-4.58,3.82-4.22,6.66-3.75,3.65.61,1.63,3.44,1.64,5.23q.07,27-.12,53.91c0,2.06.53,4.49-1.43,6.06-3,2.42-6.66.75-7.22-3.21a13.8,13.8,0,0,0-1-3.92,31,31,0,0,0-.2,4.61c.36,3.59-1.55,4.54-4.69,4.74-2.69.17-3.83-.31-2.72-3.26a22.67,22.67,0,0,0,1.59-10.27,13.85,13.85,0,0,0-1.15-4.29c-.75-1.61-1.63-3.72-3.87-3.17-2.51.62-1.67,2.81-1.45,4.59a10.81,10.81,0,0,1,0,1.39c-.19.49-.44.52-.76.15-1.64-1.86-2.33-5.81-5.66-4.4-3.89,1.65.25,5.31-.94,8-2.27-1.17-2.73-5.37-6.21-4-2.19.88-.44,2.92-.57,4.74-1.71.7-4.37-1.45-5.56,1.3-1,2.33.62,4.13,1.36,6.1.48,1.29,2.47,2.82.81,3.87-2.26,1.42-5.19.74-7.84.82-1.78.06-2.16-1.35-2.18-2.74-.06-3.77,0-7.54-1.13-11.31,0,2.48,0,5,0,7.43-.08,6.94-.09,6.94-7.08,7.32-7.45.41-7.47.41-7.85-7.28-.86-17.45-.91-34.93-1-52.4,0-2.56-.34-4.91,3.56-5s3,2.72,3.45,4.74a41.75,41.75,0,0,1,.36,4.85c.2-2.6.29-4.09.44-5.57.45-4.4,4.78-6.65,8.28-3.93,1.51,1.18,1.29,1.35,2-.37.55-1.29,13.64-2.54,15-1.79,1.09.61.92,1.66,1,2.62A11.22,11.22,0,0,0,999.46,536.84Z" transform="translate(-848 -427)"/><path class="cls-2" d="M991.31,585.27c2.94.53,3.33,3,4.59,4.64.56.75.93,2,2.15,1.71,1.57-.41,1-1.84,1-2.93.11-2.86-2-5.12-2.62-8.49,3.44,2.19,4,5.07,4.41,8,.17,1.12.12,2.67,1.69,2.55,1.38-.11,1.62-1.63,1.58-2.75-.08-2.15-.38-4.29-.66-6.42-.23-1.74-1-3.46,0-5.87,3.19,3.81,3.27,7.81,3,11.9-.07,1.08-.94,2.55.6,3s2.21-1,2.82-2.22c2-3.95.55-8.37,1.86-12.48,2.07,4.18,1.61,8.42.23,12.67-2.22,6.84-6.88,12.13-11.46,17.38-5,5.75-10.23,11.28-15.56,16.72a47.67,47.67,0,0,1-20.41,12c-13,4-33.44-8.17-36.4-25.79a84.14,84.14,0,0,1,0-30.27c.23-1.19-.29-3.15,1.68-3s1.26,2.05,1.26,3.27c0,10.17.25,20.3,3.75,30.05,8.66,24.13,29.09,23.44,43.8,10.82,7-6,11.44-13.14,15.09-21.19a8.56,8.56,0,0,0-.15-8.12C992.71,589,991.05,587.77,991.31,585.27Z" transform="translate(-848 -427)"/><path class="cls-2" d="M964.79,507.4c-2.44,7.16,0,13.89,2,20.73-3.11-1.79-3.25-5.07-3.91-7.79-2-8.23-.52-16.28,3-23.83,1.88-4.09.6-6.31-2.94-8-3.83-1.78-7.78-3.08-12-1.5a5.77,5.77,0,0,1-3.87.07c-6.64-2-12.1-.17-16.43,5.21-3.94,4.9-8.47,9.44-9.16,16.23-.14,1.4-.61,3.19-2.33,3.52-2.52.48-1.11-2.68-3.48-3.6-.64,6.58,3.67,12,3.41,19.2-4.79-7-7.41-13.9-7.13-21.19.68-18.09,6.29-34.42,20.49-46.53,9.37-8,20.31-12.81,33-10.94,11.89,1.74,23.83,12.81,26,23.41.82,3.87.5,6.19-4.33,7.53-13.74,3.81-20.39,14-22.42,27.6Z" transform="translate(-848 -427)"/><path class="cls-2" d="M990.34,598.44c-2.62,10.67-10,17-17.78,23.2-8.85,7.09-24.92,6-32-6.12-7.33-12.5-7.95-25.93-6.86-39.61.81-10.21,2.84-20.31,4.09-30.5.24-1.92,1.24-1.65,2.29-1.65,4,0,8-.72,10.46-3.77,1.8-2.21,4.45,2.11,5.51-1.51a8.87,8.87,0,0,1,4.81-5.43c1.4,7.15.74,14.05,1,20.88.47,13.3.86,26.61,1,39.91,0,3.87,1.26,5.34,5.26,5.1C975.52,598.49,983,597.88,990.34,598.44Z" transform="translate(-848 -427)"/><path class="cls-2" d="M930.77,522.71c2.85.63,5.06.7,7.12,1.87a4.63,4.63,0,0,0,6.29-1.15c1.66-2.12.29-4-.81-5.92-.7-1.21-3.84-2.31-.48-4,2.14-1.1,3.6-2,5.3,1.39s2.27,9,8.64,8.13c.93-.13,2.19,1.38,3.14,2.29s.3,1.86-.37,2.62-1.69.86-2-.07c-1.23-3.21-5.29-1.61-6.83-4.22-.61-1-1.41-.45-2.08,0-2.92,2.05-2.4,6.83-6.42,8.12-.27.08.49,1.44,1.24,1.87,1.12.64,2.33.84,3-.53a25.71,25.71,0,0,0,1.11-4c2.54,1.62,4.91,3.11,8.56,2.43-3.25,4.49-7.15,6.72-11,8.8-3.3,1.78-6.71,1.25-9.7-1.36-3.31-2.88-5.23-7-3.81-10.58C932.57,525.91,931.67,524.9,930.77,522.71Z" transform="translate(-848 -427)"/><path class="cls-2" d="M964.68,507.56c1.29-.34.14-3.55,3.94-1.84s8.44,5.4,13.93,2.84c2.1-1,4.57,1.09,5.44,3.18,1.13,2.71-1.34,2.37-3.06,2.89a25.27,25.27,0,0,1-12.59.75c-.45-.1-1-.39-1.34-.22-5.69,2.85-6.39-.19-5.89-4.85a13.18,13.18,0,0,0-.31-2.92Z" transform="translate(-848 -427)"/><path class="cls-2" d="M1029.37,511.91c-.55,4.7-2.6,5.79-6,3.48a2.68,2.68,0,0,0-3.18-.22,4.13,4.13,0,0,1-4.68-.2c-1.89-1.63-3.26-1.65-5-.1-1.62,1.41-3.08.91-4.08-.82s0-2.65,1.54-3.44c3-1.56,5.94-1.94,9.37-2.22,3.85-.31,6.78,1.82,10.08,1.53C1030.38,509.66,1029.29,511.19,1029.37,511.91Z" transform="translate(-848 -427)"/><path class="cls-2" d="M1003.71,512.45c-.11,3.81-2.83,6.81-6,6.66-3.78-.18-7.27-3.55-7.1-7.07s1.84-6.06,5.77-6.15S1003.82,508.92,1003.71,512.45Z" transform="translate(-848 -427)"/><path class="cls-2" d="M917.05,538.8c.05-4.55,6.22-11.81,10.08-12.24a2.18,2.18,0,0,1,1.65.74,1.54,1.54,0,0,1-.5,2.18c-2.84,2.1-3.53,4.59-3,8.19a4.57,4.57,0,0,1-4.56,5C918.08,542.73,917.15,540.7,917.05,538.8Z" transform="translate(-848 -427)"/><path class="cls-2" d="M897.57,604.91c-.13,1-7,5.63-8,5.28a2,2,0,0,1-1.09-.93c-1.13-2.26.75-3,2.16-3.63,2.12-1,4-3.28,6.75-1.64C897.56,604.1,897.51,604.59,897.57,604.91Z" transform="translate(-848 -427)"/><path class="cls-2" d="M940.67,523.24c-2.31-.22-3.93-1.29-4.11-3.64-.1-1.4,1.25-3.3,2.15-2.67,1.63,1.13,2.72,3.2,3.64,5.07C942.73,522.77,941.47,523.16,940.67,523.24Z" transform="translate(-848 -427)"/><path class="cls-2" d="M894,552.42a14.55,14.55,0,0,0,5.76,6.18C895.16,558.64,894.18,557.54,894,552.42Z" transform="translate(-848 -427)"/><path class="cls-2" d="M952.09,527.14c.74.48,1.87.76,1.94,1.85,0,.78-.8,1-1.45.81-.91-.27-2-.52-2-1.78C950.63,527.29,951.25,527,952.09,527.14Z" transform="translate(-848 -427)"/><path class="cls-2" d="M928.38,533.93a3,3,0,0,1,1.73,3.29C928.15,537,927.86,535.9,928.38,533.93Z" transform="translate(-848 -427)"/><path class="cls-2" d="M897.89,614c.61-.08,1,.25.86.81a2.78,2.78,0,0,1-1,1.56c-.59.36-.77-.34-.8-.8A1.42,1.42,0,0,1,897.89,614Z" transform="translate(-848 -427)"/><path class="cls-2" d="M896.85,611c-.68.28-1.16.66-1.43.55s-.45-.7-.67-1.08c.28-.15.62-.49.83-.42A6,6,0,0,1,896.85,611Z" transform="translate(-848 -427)"/><path class="cls-1" d="M1036.84,484.08c3.22,2,2.87,3.94-.38,5.35-1.54.67-3.52.83-3.42,2.93s1.87,2.32,3.66,2.48c2.94.26,1.92,2.75,1.92,4.28,0,13.8,0,27.62-.33,41.41-.78,28.62-.68,57.23-.59,85.84,0,2.66-.1,5.32-.19,8-.09,2.38-1.17,3.46-3.75,3.52-19.46.41-38.93,1-58.39,1.43-2,0-4-.2-5.83-.3a1.25,1.25,0,0,1,.74-1.79c16.48-8.59,28.22-22.44,40-36.22,1.78-2.09,3.49-3.21,6.23-3.29,4.15-.12,8.31-.48,12.44-1s6.25-2.24,6.19-7.14c-.27-20.8,0-41.6,0-62.4,0-2.25.47-4.55-1.92-6.32-1.52-1.13-.4-3.16-.1-4.71a37.42,37.42,0,0,0-.16-16.81c-1.5-5.8-3.73-11.28-9.06-14.41-6.31-3.71-9-10.4-13.82-15.37-7.06-7.35-13.38-15.39-20.62-23.84,3.41,0,6-.05,8.57,0,11.81.28,23.62.66,35.43.86,3.18.06,4.19,1.15,4.19,4.46,0,8.48.53,17,.91,25.44.09,2,.18,3.69-2.64,3.54a3.86,3.86,0,0,0-2.19,1.07c-1.43,1.12-3.08,2.25-2.6,4.43a2.13,2.13,0,0,0,2.27,1.61,3.48,3.48,0,0,0,3.69-3.27Z" transform="translate(-848 -427)"/><path class="cls-1" d="M929.22,446.58c-8.56,7.16-14.81,15.79-19.9,25.43a71,71,0,0,0-6.82,49.82c.81,3.73.36,6.11-3.18,8.29-6.2,3.83-10.58,9.85-16.89,15.82,0-7.58-.44-14,.08-20.37,2-23.91,1.11-47.89,1.93-71.83.25-7.35.09-7.34,7.18-7.71,10.63-.56,21.3.35,31.92-.69C925.24,445.17,927.18,445,929.22,446.58Z" transform="translate(-848 -427)"/><path class="cls-1" d="M948.25,638.71H938.13c-1.63,0-2.25-1.07-2.77-2.39-5.82-15-17.08-25.18-30.15-33.51-5.1-3.26-6.36-7.21-5.33-12.6a50.31,50.31,0,0,1,6.86-17.55c1.21-1.93,2.27-2.65,4.78-2.1,6.08,1.32,8.27-.72,8-6.9a6.56,6.56,0,0,1,.9-3.8c1.12-1.86,2.46-4.41,4.74-3.76,2.7.78,1.47,3.55,1.11,5.57-2.73,15.08-5.3,30.13-2.06,45.51,2.89,13.75,8.8,25.06,23.09,30a7.31,7.31,0,0,1,1.23.72Z" transform="translate(-848 -427)"/><path class="cls-1" d="M897.3,625.07c4.23,3.95,7.3,6.69,9.5,10.3,1.66,2.72.77,3.16-1.95,3.57-4.4.65-6.57-.73-6.62-5.33C898.21,631.21,897.73,628.82,897.3,625.07Z" transform="translate(-848 -427)"/><path d="M1037,483.9c-1.42.05-2,2.36-3.76,1.37A1.36,1.36,0,0,1,1033,484a3.43,3.43,0,0,1,2.9-2.26c2.06-.11,1.13,1.35,1,2.34Z" transform="translate(-848 -427)"/><path d="M909.36,631.32c3.35-1.75,3.71.52,4.31,3.54l-4.35-3.58Z" transform="translate(-848 -427)"/><path d="M907.68,628.76,905,623.38c3.68,1.12,3.29,3.2,2.71,5.37Z" transform="translate(-848 -427)"/><path d="M1036.43,493.15c-.67,0-1.31-.13-1.38-1s.57-1.1,1.22-1.16,1.31.11,1.39.93S1037,493,1036.43,493.15Z" transform="translate(-848 -427)"/><path d="M994.78,563.38v11.17A19.07,19.07,0,0,1,994.78,563.38Z" transform="translate(-848 -427)"/><path class="cls-1" d="M919.78,507.35c-.74.45-1.24-.42-1.74-.38-6.13.6-4.67-3.67-4.13-6.79,3.32-18.86,10.44-35.19,28.39-45.08s40-3,46.85,15.56c1.79,4.79,1,6.83-2.75,7.6-1.86.39-2.54.05-2-1.91a9.93,9.93,0,0,0-.47-6.36,2.55,2.55,0,0,0-2.56-2,2.47,2.47,0,0,0-2.49,2.59c0,2.15-.71,5.14.41,6.29,3.1,3.18.57,4.07-1.45,5.31a30.63,30.63,0,0,0-7.29,6.75c-2.21,2.65-3.41,1.41-4.68-1.05,2.38-.26,5.32-.3,5-3.37s-3.62-3.66-6.16-4.16-3.53,1.1-3.21,3.62c.26,2-1.06,1.56-2.24,1.29-6.05-1.35-12.16.76-18.26-.47-3.07-.63-6,.88-8.19,3C927.07,493.39,921.38,499.05,919.78,507.35Z" transform="translate(-848 -427)"/><path d="M968.71,485c-.41,1.24-1.47,1-2.4.7-1.39-.44-3.15-.76-2.9-2.75.13-1,1.19-.82,2-.63C967.21,482.67,968.87,483.91,968.71,485Z" transform="translate(-848 -427)"/><path d="M981.66,477.34a9.07,9.07,0,0,1-.72-7.21C983.31,472.7,983.31,472.7,981.66,477.34Z" transform="translate(-848 -427)"/><path class="cls-1" d="M960.39,537.1c0,12.12-.09,23.7,0,35.27.08,7.64.53,15.28.66,22.92.07,4.16,2.09,5.46,6,5.23,5.8-.35,11.62-.39,17.44-.51,1.3,0,3.29-.8,2.57,2-2.56,10-20.51,24-29.58,22.6s-16.28-6.75-20.14-20.7c-3.78-13.63-2.94-27.63-.07-41.48.91-4.38,1.43-8.83,2.26-13.24.55-2.9,1.63-4,4.36-4,4,0,6.89-4.16,11.58-2.93C957.61,542.77,956.64,538.23,960.39,537.1Z" transform="translate(-848 -427)"/><path d="M942.17,536.73c-3-1-5.75-2.26-7.76-5.76A10.7,10.7,0,0,1,942.17,536.73Z" transform="translate(-848 -427)"/><path d="M998.13,512.84c-.19.67-.57,1.18-1.32,1a1.12,1.12,0,0,1-.87-1.43,1.09,1.09,0,0,1,1.3-1C998,511.55,998.19,512.14,998.13,512.84Z" transform="translate(-848 -427)"/><path class="cls-2" d="M1025,479.9c-2-.12-3.38-1.1-3-2.79.53-2.77,1.53-5.62,4.46-6.74a2,2,0,0,1,2.59,2.22C1028.8,475.62,1027.79,478.38,1025,479.9Z" transform="translate(-848 -427)"/><path class="cls-2" d="M1036,634.66c-2.29-2.13-3.33-4.23-2.81-6.82.12-.57,1.07-1.1,1.55-.52C1036.43,629.42,1035.19,632,1036,634.66Z" transform="translate(-848 -427)"/><path class="cls-2" d="M1034.32,621c1.54-.18,1.5.91,1.5,1.89,0,1.25.37,2.83-1.58,3-1.19.1-1.27-.9-1-1.69C1033.54,623.12,1032.18,621.42,1034.32,621Z" transform="translate(-848 -427)"/><path class="cls-2" d="M976,478.49c0,2.43-.88,3.83-2.55,3.59-3.22-.46-4.35-3.22-5-5.95a2.26,2.26,0,0,1,2.5-2.89C974.19,473.64,974.85,476.68,976,478.49Z" transform="translate(-848 -427)"/><path d="M1024.18,478.21c-.37-2.9.8-4.5,2.92-6.63A7.11,7.11,0,0,1,1024.18,478.21Z" transform="translate(-848 -427)"/><path d="M970.29,474.35c2.68,1.85,3.94,3.25,3.67,6.09C971.41,479.36,970.41,477.83,970.29,474.35Z" transform="translate(-848 -427)"/></svg>